<?xml version="1.0" encoding="utf-8"?>
<!-- Generator: Adobe Illustrator 27.0.0, SVG Export Plug-In . SVG Version: 6.00 Build 0)  -->
<svg version="1.1"
	 id="svg3476" xmlns:dc="http://purl.org/dc/elements/1.1/" xmlns:sodipodi="http://sodipodi.sourceforge.net/DTD/sodipodi-0.dtd" xmlns:cc="http://creativecommons.org/ns#" xmlns:inkscape="http://www.inkscape.org/namespaces/inkscape" xmlns:svg="http://www.w3.org/2000/svg" xmlns:rdf="http://www.w3.org/1999/02/22-rdf-syntax-ns#"
	 xmlns="http://www.w3.org/2000/svg" xmlns:xlink="http://www.w3.org/1999/xlink" x="0px" y="0px" viewBox="0 0 290.2 329.1"
	 style="enable-background:new 0 0 290.2 329.1;" xml:space="preserve">
<style type="text/css">
	.st0{fill:#D45732;stroke:#000000;stroke-miterlimit:10;}
	.st1{fill:#E16E39;}
	.st2{fill:#EBEBEB;}
	.st3{fill:#FFFFFF;}
</style>
<sodipodi:namedview  bordercolor="#666666" borderopacity="1.0" fit-margin-bottom="0" fit-margin-left="0" fit-margin-right="0" fit-margin-top="0" id="base" inkscape:current-layer="layer1" inkscape:cx="181.367" inkscape:cy="256" inkscape:document-units="px" inkscape:pageopacity="0.0" inkscape:pageshadow="2" inkscape:window-height="704" inkscape:window-maximized="1" inkscape:window-width="1366" inkscape:window-x="0" inkscape:window-y="27" inkscape:zoom="0.35" pagecolor="#ffffff" showgrid="false">
	</sodipodi:namedview>
<g id="layer1" transform="translate(-193.633,-276.3622)" inkscape:groupmode="layer" inkscape:label="Calque 1">
	<g id="g3013" transform="translate(119,276.3622)">
		<polygon id="polygon2989" class="st0" points="364.8,-0.1 338.4,296.1 219.5,329 101,296.1 74.6,-0.1 		"/>
		<polygon id="polygon2991" class="st1" points="315.8,277.2 338.3,24.1 219.7,24.1 219.7,303.8 		"/>
		<polygon id="polygon2993" class="st2" points="135.3,134 138.5,170.3 219.6,170.3 219.6,134 		"/>
		<polygon id="polygon2995" class="st3" points="219.3,96.8 307.1,96.8 310.4,60.5 219.4,60.5 219.3,60.5 		"/>
		<polygon id="polygon2997" class="st2" points="219.7,266.1 219.7,228.3 219.6,228.4 179.1,217.4 176.5,188.5 156.9,188.5 
			140.1,188.5 145.1,245.5 219.6,266.2 		"/>
	</g>
</g>
<polygon id="polygon2995_00000055697681979656078220000017277444082915628951_" class="st2" points="144.7,60.5 144.5,60.5 
	53.6,60.5 56.9,96.9 144.7,96.9 "/>
<path id="polygon2995_00000161597978483888529360000007814303453577702828_" class="st2" d="M56.9,96.9c1.3,12.4,2.5,24.8,3.8,37.2
	c12.2,0,24.3,0,36.5,0c-1.2-12.4-2.5-24.8-3.7-37.2C81.3,96.9,69.1,96.9,56.9,96.9z"/>
<path class="st2" d="M111.4,148"/>
<polygon id="polygon2997_00000164504222916020311660000015306386055417493416_" class="st3" points="145.3,266.3 219.7,245.6 
	224.8,188.6 208,188.6 188.3,188.6 185.7,217.5 145.3,228.5 145.1,228.4 145.1,266.2 "/>
<polygon id="polygon2993_00000152240009317535179230000006744714133587773346_" class="st3" points="145.1,134.1 145.1,170.4 
	226.2,170.4 229.4,134.1 "/>
<polyline class="st3" points="188.3,188.6 189.7,170.4 226.2,170.4 224.8,188.6 "/>
</svg>
